<svg xmlns="http://www.w3.org/2000/svg" x="0px" y="0px"
	 viewBox="0 0 100 100" >
<style type="text/css">
	.st0{fill:#FFFFFF;}
</style>
<circle cx="50" cy="50" r="44.2"/>
<path class="st0" d="M34.2,69c-11.4,0-18.3-7.3-18.3-19c0-11.6,7.2-19,18.6-19c6.9,0,12.2,3.4,15,8.5l-7.7,2.8
	c-1.6-3-4.7-4.2-7.6-4.2C29,38.1,25,42.5,25,50c0,7.7,4,11.9,9.2,11.9c2.7,0,6.1-0.9,7.8-4.1l7.6,2.8C46.7,65.8,41.1,69,34.2,69z"/>
<path class="st0" d="M74.1,68.3l-9.9-13.8h-3.9v13.8h-8.7V31.7h14.1c9.5,0,16.6,2.2,16.6,11.4c0,4.2-1.9,8.7-8.8,10.5l10.7,14.8
	H74.1z"/>
<path d="M66,39h-5.7v8.3H66c4.1,0,7.2-0.7,7.2-4.1S70,39,66,39z"/>
</svg>
