<?xml version="1.0" standalone="no"?>
<!DOCTYPE svg PUBLIC "-//W3C//DTD SVG 20010904//EN"
 "http://www.w3.org/TR/2001/REC-SVG-20010904/DTD/svg10.dtd">
<svg version="1.0" xmlns="http://www.w3.org/2000/svg"
 width="700.000000pt" height="700.000000pt" viewBox="0 0 700.000000 700.000000"
 preserveAspectRatio="xMidYMid meet">
<metadata>
Created by potrace 1.11, written by Peter Selinger 2001-2013
</metadata>
<g transform="translate(0.000000,700.000000) scale(0.100000,-0.100000)"
fill="#000000" stroke="none">
<path d="M3155 6575 c-868 -105 -1613 -532 -2131 -1221 -311 -414 -501 -872
-587 -1414 -18 -116 -21 -177 -21 -440 0 -263 3 -324 21 -440 91 -574 301
-1057 650 -1496 112 -140 339 -367 473 -473 475 -377 1004 -596 1600 -665 176
-21 504 -21 680 0 713 82 1342 385 1845 889 508 507 809 1134 891 1855 22 197
15 587 -14 775 -83 533 -276 996 -586 1409 -470 626 -1165 1056 -1921 1190
-264 47 -656 60 -900 31z m-480 -1770 c242 -51 432 -151 595 -314 74 -74 190
-227 190 -250 0 -7 -530 -205 -535 -199 -1 2 -16 24 -33 49 -100 148 -288 239
-495 239 -374 0 -621 -297 -644 -771 -22 -451 169 -789 492 -874 77 -20 227
-19 318 1 145 32 301 133 352 228 11 20 23 36 27 36 10 0 498 -179 516 -189
10 -6 0 -27 -38 -84 -161 -241 -423 -410 -742 -479 -137 -29 -423 -32 -568 -5
-391 73 -682 283 -847 612 -173 343 -198 847 -63 1230 155 438 501 710 990
781 123 17 377 12 485 -11z m2195 -35 c323 -30 536 -103 679 -236 151 -139
221 -341 208 -593 -7 -126 -25 -200 -73 -299 -84 -172 -245 -300 -468 -372
-36 -12 -66 -23 -66 -25 0 -2 160 -225 355 -494 195 -270 362 -502 371 -516
l16 -25 -349 0 -349 0 -350 488 -350 487 -134 0 -135 0 -3 -482 -2 -483 -305
0 -305 0 0 1280 0 1280 573 0 c314 0 624 -5 687 -10z"/>
<path d="M4220 3980 l0 -290 259 0 c143 0 295 5 337 11 209 29 304 115 304
274 0 96 -34 166 -104 213 -98 65 -206 82 -543 82 l-253 0 0 -290z"/>
</g>
</svg>
